PathFileType	4	(X/Y/Z)	C:/Users/opensim2020/Desktop/walking_exp_matlab/subject01_walking15_straight_03.trc	
DataRate	CameraRate	NumFrames	NumMarkers	Units	OrigDataRate	OrigDataStartFrame	OrigNumFrames	
100.00	100.00	4	43	mm	100.00	1708	145	
Frame#	Time	LFHD			RFHD			LBHD			RBHD			C7			T10			CLAV			STRN			RBAK			LSHO			LUPA			LELB			LFRM			LWRA			LWRB			LFIN			RSHO			RUPA			RELB			RFRM			RWRA			RWRB			RFIN			LASI			RASI			LPSI			RPSI			LTHI			LKNE			LTIB			LANK			LHEE			LTOE			RTHI			RKNE			RTIB			RANK			RHEE			RTOE			*39			*40			*41			*42			
		X1	Y1	Z1	X2	Y2	Z2	X3	Y3	Z3	X4	Y4	Z4	X5	Y5	Z5	X6	Y6	Z6	X7	Y7	Z7	X8	Y8	Z8	X9	Y9	Z9	X10	Y10	Z10	X11	Y11	Z11	X12	Y12	Z12	X13	Y13	Z13	X14	Y14	Z14	X15	Y15	Z15	X16	Y16	Z16	X17	Y17	Z17	X18	Y18	Z18	X19	Y19	Z19	X20	Y20	Z20	X21	Y21	Z21	X22	Y22	Z22	X23	Y23	Z23	X24	Y24	Z24	X25	Y25	Z25	X26	Y26	Z26	X27	Y27	Z27	X28	Y28	Z28	X29	Y29	Z29	X30	Y30	Z30	X31	Y31	Z31	X32	Y32	Z32	X33	Y33	Z33	X34	Y34	Z34	X35	Y35	Z35	X36	Y36	Z36	X37	Y37	Z37	X38	Y38	Z38	X39	Y39	Z39	X40	Y40	Z40	X41	Y41	Z41	X42	Y42	Z42	X43	Y43	Z43	

109	1.080	1392.45166	543.88776	1649.79443	1494.88269	592.21436	1662.00110	1439.39990	436.86502	1607.35193	1548.26257	484.96503	1618.43396	1480.45190	412.97131	1416.94226	1500.24878	370.41299	1125.06311	1466.44604	557.34589	1349.13232	1467.48083	596.10779	1192.16064	1572.20276	360.99634	1232.83545	1313.11914	479.53644	1377.42749	1245.28467	403.64282	1200.33228	1261.23865	355.24078	1060.83948	1237.60547	349.29468	947.97675	1247.85425	385.15585	811.44690	1235.65723	328.23926	827.16077	1217.17114	345.24261	747.31592	1619.49109	506.88605	1396.80090	1741.96228	452.57373	1212.64136	1761.81018	465.56302	1085.00269	1773.10144	560.62811	1001.03479	1726.35266	688.16156	962.87354	1768.47461	663.14911	933.92078	1759.29089	742.52588	905.51178	1395.01941	543.52838	920.61987	1611.93323	537.88525	918.54156	1437.39844	356.71078	926.44562	1579.79675	353.08749	940.58380	1319.53479	600.40704	606.22357	1345.28516	646.97046	483.46161	1335.52832	656.40851	297.60980	1383.30530	721.46716	82.52837	1443.62878	697.75250	39.80250	1359.41968	864.08118	94.67486	1668.12671	408.31488	598.97876	1645.17175	373.33603	440.76035	1653.20435	268.80417	297.15906	1610.38733	180.10818	108.13342	1562.75745	120.15833	87.12901	1605.43970	302.73874	34.76863	1474.39136	573.36188	1693.90198	-3101.93896	1973.10095	1023.82379	-3140.72583	2012.54785	1022.12854			 
110	1.090	1388.96863	556.10797	1648.68567	1491.32043	604.36420	1661.13721	1435.89221	449.44736	1605.34680	1544.74084	497.43805	1616.74841	1477.02930	426.70920	1415.44873	1497.65601	384.57175	1123.48206	1463.25464	571.21869	1347.79565	1464.89026	610.20020	1190.86169	1569.12708	374.72241	1231.50647	1309.76721	493.50610	1375.51770	1242.80957	417.25949	1197.99341	1259.39673	368.15442	1059.25183	1236.28394	360.89569	946.49872	1247.05359	394.76996	809.52179	1234.73975	338.10110	825.92133	1216.89844	353.73685	745.72516	1616.01440	520.45258	1395.59021	1739.22766	466.77036	1211.92480	1759.66577	479.80945	1084.43164	1770.61304	575.66638	1001.42645	1723.30957	703.32629	964.73883	1765.67261	678.89716	935.54810	1756.03369	758.58563	908.15295	1394.23901	559.09204	919.15375	1610.99451	551.75128	917.31891	1434.65723	371.88031	925.09100	1576.90894	367.26062	939.10956	1318.87732	615.45776	605.14148	1344.45715	660.92584	482.36453	1334.70581	672.02924	295.82944	1383.22083	739.23572	81.39856	1443.86072	716.55884	38.37812	1357.90698	881.36823	95.57015	1667.49890	421.05878	598.10632	1645.02100	384.92868	440.04349	1653.33435	276.58987	298.94513	1611.11926	183.02914	112.01987	1563.45215	122.59951	92.95983	1605.62000	303.15262	34.89407	1470.89111	585.24908	1692.89246	-3102.00928	1973.12146	1023.52441	-3140.73364	2012.52124	1022.06537			 
111	1.100	1385.26208	568.52258	1647.50708	1487.73010	616.48413	1660.31873	1432.20129	462.01944	1603.30798	1541.09692	509.88437	1615.04980	1473.32275	440.42468	1413.92615	1495.02612	398.86636	1121.94312	1459.91370	585.11731	1346.48645	1462.31360	624.54565	1189.76501	1565.91724	388.57709	1230.26147	1306.24780	507.65372	1373.56665	1239.82263	430.39865	1196.04761	1257.36121	381.48700	1057.62207	1234.72107	372.89517	944.99591	1245.97852	405.16791	807.61646	1233.46704	348.86456	824.68134	1216.31665	363.26544	744.06427	1612.84534	534.90814	1394.70203	1736.33215	480.62912	1211.28992	1757.32776	493.81335	1083.96252	1768.10132	590.27454	1001.78162	1720.28967	717.87689	966.05664	1762.87000	694.03284	936.76453	1752.86206	773.90967	910.12140	1393.51526	574.74463	917.76086	1609.92725	565.98938	916.15234	1432.01184	387.10025	923.79224	1574.22498	381.65094	937.70490	1319.65771	631.82788	604.52252	1343.51489	675.10815	481.03720	1334.30542	686.51953	293.69794	1383.70264	753.61816	79.43644	1444.87537	731.60522	36.85567	1357.37537	895.69806	94.23930	1666.78906	434.73666	597.17896	1644.99390	397.63794	439.27988	1653.43372	285.26596	300.85791	1611.79211	186.33618	116.40807	1564.32764	125.57739	99.45124	1605.93896	303.72150	35.13226	1467.27014	597.10724	1691.92114	-3102.02271	1973.07361	1023.41937	-3140.72656	2012.54028	1022.09229			 
112	1.110	1381.68054	580.59937	1646.36047	1483.99219	628.38971	1659.50439	1428.36523	474.57727	1601.25854	1537.32996	522.25714	1613.37085	1469.55896	454.24936	1412.47437	1492.25012	413.35870	1120.38574	1456.50684	599.19214	1345.26929	1459.56848	638.92163	1188.62549	1562.55920	402.54294	1229.00708	1302.58398	521.84381	1371.62476	1236.41919	445.12576	1194.21765	1255.13782	395.01752	1055.89001	1233.03027	385.45370	943.43256	1244.51501	416.48575	805.93878	1232.26392	360.25159	823.32269	1215.58203	373.76431	742.19434	1609.23328	548.51904	1393.70691	1733.15881	494.18121	1210.74121	1754.80017	507.49338	1083.55640	1765.47229	604.35541	1001.93201	1717.32214	731.91888	966.84491	1760.15320	708.49579	937.58850	1749.78345	788.49664	911.39191	1392.55798	590.74579	916.50555	1608.67847	580.29822	914.93585	1429.46265	402.59167	922.45276	1571.48462	396.38000	935.92395	1320.90125	649.18933	604.32208	1342.64050	689.62262	479.52338	1334.34595	699.86346	291.36746	1384.52881	765.50262	77.59434	1445.48645	742.53418	36.06952	1357.69165	907.24780	90.83701	1665.83313	449.14282	596.04895	1644.93469	411.43716	438.05713	1653.34204	294.94168	302.71375	1612.59021	190.64354	121.33404	1564.85046	129.45351	106.47900	1605.67200	303.99075	34.79821	1463.59412	608.91010	1690.96057	-3101.96729	1972.98792	1023.85065	-3140.56714	2012.54932	1022.08398			 
